<svg width="37" height="37" viewBox="0 0 37 37" fill="none" xmlns="http://www.w3.org/2000/svg">
<g id="Frame 3466487">
<rect x="0.552246" y="0.48584" width="36.2148" height="36.2148" rx="18.1074" fill="#329DFF" fill-opacity="0.1"/>
<path id="Vector" d="M10.9614 15.25H26.9614M10.9614 15.9H26.9614M13.423 20.45H18.346M13.423 22.4H15.8845M12.8076 25H25.1153C25.6049 25 26.0745 24.7946 26.4207 24.4289C26.7669 24.0632 26.9614 23.5672 26.9614 23.05V13.95C26.9614 13.4328 26.7669 12.9368 26.4207 12.5711C26.0745 12.2054 25.6049 12 25.1153 12H12.8076C12.3179 12 11.8484 12.2054 11.5022 12.5711C11.1559 12.9368 10.9614 13.4328 10.9614 13.95V23.05C10.9614 23.5672 11.1559 24.0632 11.5022 24.4289C11.8484 24.7946 12.3179 25 12.8076 25Z" stroke="#156CF7" stroke-width="1.5" stroke-linecap="round" stroke-linejoin="round"/>
</g>
</svg>
